HIERARCHY
ROOT Hips
{
	OFFSET	0	0	0
	CHANNELS 6  Xposition Yposition Zposition Xrotation Yrotation Zrotation
	JOINT Spine
	{
		OFFSET	0	0.0328084	0
		CHANNELS 6  Xrotation Yrotation Zrotation Xposition Yposition Zposition
		JOINT Spine1
		{
			OFFSET	0	0.381725	-0.0681652
			CHANNELS 6  Xrotation Yrotation Zrotation Xposition Yposition Zposition
			JOINT Spine2
			{
				OFFSET	0	0.289361	0.0310152
				CHANNELS 6  Xrotation Yrotation Zrotation Xposition Yposition Zposition
				JOINT Spine3
				{
					OFFSET	0	0.346279	0.102929
					CHANNELS 6  Xrotation Yrotation Zrotation Xposition Yposition Zposition
					JOINT Spine4
					{
						OFFSET	0	0.512602	-0.0524872
						CHANNELS 3  Xrotation Yrotation Zrotation
						JOINT Neck
						{
							OFFSET	0	0.244713	-0.171435
							CHANNELS 3  Xrotation Yrotation Zrotation
							JOINT Head
							{
								OFFSET	0	0.293792	-0.0879331
								CHANNELS 3  Xrotation Yrotation Zrotation
								End Site
								{
									OFFSET	0	0.612805	-0.0296519
								}
							}
						}
					}
					JOINT LeftShoulder
					{
						OFFSET	-0.147237	0.62303	-0.293792
						CHANNELS 3  Xrotation Yrotation Zrotation
						JOINT LeftArm
						{
							OFFSET	-0.396551	-0.0879331	0.112814
							CHANNELS 3  Xrotation Yrotation Zrotation
							JOINT LeftForeArm
							{
								OFFSET	-1.08107	-0.0493418	0.0771655
								CHANNELS 3  Xrotation Yrotation Zrotation
								JOINT LeftHand
								{
									OFFSET	-0.926108	-0.0639993	0.0661046
									CHANNELS 3  Xrotation Yrotation Zrotation
									End Site
									{
										OFFSET	-0.337983	-0.0233566	0.0241233
									}
								}
							}
						}
					}
					JOINT RightShoulder
					{
						OFFSET	0.147237	0.62303	-0.293792
						CHANNELS 3  Xrotation Yrotation Zrotation
						JOINT RightArm
						{
							OFFSET	0.396551	-0.0879331	0.112814
							CHANNELS 3  Xrotation Yrotation Zrotation
							JOINT RightForeArm
							{
								OFFSET	1.08107	-0.0493418	0.0771655
								CHANNELS 3  Xrotation Yrotation Zrotation
								JOINT RightHand
								{
									OFFSET	0.926108	-0.0639993	0.0661046
									CHANNELS 3  Xrotation Yrotation Zrotation
									End Site
									{
										OFFSET	0.337983	-0.0233566	0.0241233
									}
								}
							}
						}
					}
				}
			}
		}
	}
	JOINT LeftUpLeg
	{
		OFFSET	-0.373886	-0.287466	-0.0671427
		CHANNELS 3  Xrotation Yrotation Zrotation
		JOINT LeftLeg
		{
			OFFSET	0.00603979	-1.45961	-0.0228169
			CHANNELS 3  Xrotation Yrotation Zrotation
			JOINT LeftFoot
			{
				OFFSET	-0.0790355	-1.45688	0.125291
				CHANNELS 3  Xrotation Yrotation Zrotation
				JOINT LeftToeBase
				{
					OFFSET	0	-0.135242	-0.359203
					CHANNELS 3  Xrotation Yrotation Zrotation
					End Site
					{
						OFFSET	0	-0.054097	-0.216388
					}
				}
			}
		}
	}
	JOINT RightUpLeg
	{
		OFFSET	0.373886	-0.287466	-0.0671427
		CHANNELS 3  Xrotation Yrotation Zrotation
		JOINT RightLeg
		{
			OFFSET	-0.00603979	-1.45961	-0.0228169
			CHANNELS 3  Xrotation Yrotation Zrotation
			JOINT RightFoot
			{
				OFFSET	0.0790355	-1.45688	0.125291
				CHANNELS 3  Xrotation Yrotation Zrotation
				JOINT RightToeBase
				{
					OFFSET	0	-0.135242	-0.359203
					CHANNELS 3  Xrotation Yrotation Zrotation
					End Site
					{
						OFFSET	0	-0.054097	-0.216388
					}
				}
			}
		}
	}
}
MOTION
Frames: 12
Frame Time: 0.02
 0.653494 3.22789 6.75869 71.4935 60.4329 -59.0251 164.251 179.984 179.138 0 0.000136593 0 170.551 179.969 178.564 0 0.000136593 0 171.348 179.907 178.564 0 0.000136593 0 3.91298 0.0155729 -0.861536 0 0.000136593 0 171.281 -179.956 -179.716 171.43 179.395 165.885 177.559 167.527 177.341 175.641 -162.418 170.63 9.64591 23.9355 57.2243 75.5555 -38.8078 67.6092 -0 -4.89644 35.7964 179.052 179.148 -178.158 15.1518 -17.6116 -55.6288 45.2886 51.374 -38.7175 -0 4.83291 -31.305 155.768 -177.277 178.715 141.076 -159.305 -180 21.099 -0.212851 -11.9092 163.885 180 -180 2.38487 1.29702 -5.95699 163.408 175.279 180 178.542 -179.749 -176.438 157.71 180 -180
 0.636164 3.22177 6.74001 74.2583 61.4881 -61.5248 164.396 179.989 178.969 0 0.000285667 0 170.638 179.977 178.281 0 0.000285667 0 171.436 179.931 178.281 0 0.000285667 0 3.85083 0.0114468 -1.03136 0 0.000285667 0 171.3 -179.948 -179.66 171.467 179.302 166.426 177.557 167.79 177.465 175.988 -162.84 171.393 13.0738 24.2903 53.9816 74.3201 -39.0347 66.0961 -0 -4.21919 35.2154 178.609 -179.971 -177.317 8.46652 -16.9314 -58.6663 50.6999 53.5311 -44.5871 -0 6.29125 -33.0741 156.398 -177.269 178.075 141.073 -161.081 -180 22.4269 -0.0848192 -12.0885 166.039 180 -180 3.803 2.78587 -6.93615 165.283 173.498 180 176.713 -179.817 -176.63 157.711 180 -180
 0.615496 3.21381 6.7284 72.4688 62.2655 -59.0612 164.5 -179.996 178.802 0 0.000347613 0 170.7 -179.992 178.003 0 0.000347613 0 171.455 -179.977 178.003 0 0.000347613 0 3.93218 -0.00388297 -1.19805 0 0.000347613 0 171.609 -179.942 -179.605 171.959 179.153 167.409 177.686 168.143 177.676 175.888 -162.02 171.154 17.0038 23.5166 50.0107 72.902 -39.3861 64.2874 -0 -3.18274 34.6301 178.555 -179.903 -177.215 3.44795 -16.2642 -61.0974 56.03 54.9948 -50.4213 -0 7.78811 -34.4666 157.098 -177.281 177.776 141.046 -162.763 -180 23.6278 -0.0690923 -12.2004 168.22 180 -180 5.2214 4.20456 -8.46294 167.383 172.125 180 175.162 -179.841 -176.744 157.751 180 -180
 0.59507 3.20045 6.72374 70.1185 62.7329 -56.1068 164.565 179.994 178.603 0 0.00036472 0 170.74 179.988 177.672 0 0.00036472 0 171.372 179.965 177.672 0 0.00036472 0 4.27893 0.00581158 -1.39697 0 0.00036472 0 172.491 -179.939 -179.538 173.313 178.985 168.998 178.069 168.723 177.991 175.932 -160.844 171.223 20.6573 22.673 46.8786 71.4098 -39.8177 61.8684 -0 -1.97808 34.0692 178.612 179.786 -177.316 178.553 -164.498 116.682 60.483 55.6964 -55.634 -0 9.13855 -35.5856 157.577 -177.2 177.832 140.906 -164.356 -180 24.8982 -0.0227403 -12.31 170.335 180 -180 6.48854 5.40372 -9.56242 169.11 171.089 180 0.21743 -0.161775 3.20663 157.66 180 -180
 0.562616 3.1858 6.71445 67.1934 63.2245 -53.0366 164.648 179.994 178.525 0 0.000417123 0 170.789 179.989 177.542 0 0.000417123 0 171.298 179.966 177.542 0 0.000417123 0 4.61686 0.00560434 -1.47466 0 0.000417123 0 173.373 -179.943 -179.512 174.677 178.633 170.846 178.45 169.341 178.386 175.686 -159.267 170.654 24.4581 21.0236 43.3573 69.5057 -40.3637 59.7413 -0 -0.532917 33.8277 178.547 179.394 -177.181 174.815 -164.941 115.309 64.205 55.9661 -59.6186 -0 10.3549 -36.1146 157.82 -177.244 177.888 140.941 -165.594 -180 26.1046 -0.0671228 -12.3686 172.442 180 -180 7.73771 6.3267 -10.3909 171.042 170.539 180 3.30396 -0.132029 3.35023 157.515 180 -180
 0.538254 3.177 6.70185 64.7648 63.5243 -50.4766 164.799 -179.995 178.448 0 0.000492916 0 170.879 -179.989 177.414 0 0.000492916 0 171.324 -179.967 177.414 0 0.000492916 0 4.74053 -0.00546469 -1.5517 0 0.000492916 0 173.834 -179.944 -179.486 175.416 178.032 172.821 178.64 169.916 178.863 175.487 -158.014 170.198 27.3782 19.3945 40.882 67.3593 -40.7263 57.572 -0 1.05172 33.6389 178.651 178.958 -177.374 171.204 -165.427 113.384 67.7981 55.977 -63.77 -0 11.652 -36.5687 158.155 -177.294 177.827 140.719 -166.569 -180 26.2646 -0.0918662 -12.4287 174.545 180 -180 8.29235 6.79717 -10.9297 172.404 170.5 -180 4.82095 -0.10322 3.64811 157.324 180 -180
 0.505117 3.17015 6.68877 63.7282 63.981 -49.8239 164.936 -179.994 178.409 0 0.000601315 0 170.961 -179.988 177.348 0 0.000601315 0 171.46 -179.963 177.348 0 0.000601315 0 4.52723 -0.00611921 -1.59135 0 0.000601315 0 173.492 -179.94 -179.473 174.974 177.4 174.477 178.481 170.372 179.309 175.409 -156.814 170.012 29.892 17.8434 38.8825 64.633 -40.9243 54.2013 -0 2.79464 33.4103 178.575 178.649 -177.218 168.545 -165.25 112.214 71.0865 55.7744 -67.1747 -0 12.8938 -36.601 158.137 -177.689 177.739 140.716 -167.36 180 26.2075 -0.0679933 -12.4713 176.51 180 -180 8.41728 7.1486 -10.9864 173.007 170.579 180 5.07004 -0.0165477 3.96525 157.085 180 -180
 0.468981 3.16834 6.67435 63.422 63.9711 -49.5244 165.146 -179.997 178.276 0 0.000548488 0 171.087 -179.993 177.127 0 0.000548488 0 171.617 -179.979 177.127 0 0.000548488 0 4.34968 -0.00346549 -1.72372 0 0.000548488 0 173.315 -179.933 -179.429 174.706 176.916 175.61 178.386 170.555 179.622 175.626 -155.702 170.476 32.4044 16.5908 37.1543 61.2546 -40.7332 49.7564 -0 4.61872 33.0622 178.599 178.632 -177.264 165.658 -164.868 110.518 73.7969 55.319 -70.3826 -0 14.0595 -36.3919 157.63 -178.293 177.363 140.971 -168.217 -180 25.9979 -0.0744629 -12.5511 178.187 180 -180 8.31734 7.27998 -11.2894 172.487 170.775 180 4.48863 -0.0184826 4.25854 156.772 180 -180
 0.440192 3.16905 6.64992 63.4998 64.3274 -49.458 165.299 179.992 178.16 0 0.000318847 0 171.18 179.983 176.934 0 0.000318847 0 171.78 179.95 176.934 0 0.000318847 0 4.0865 0.00829462 -1.83987 0 0.000318847 0 172.873 -179.924 -179.391 174.069 176.298 176.832 178.181 170.567 179.984 175.928 -154.867 171.133 34.7574 15.2832 35.6359 57.7657 -40.163 45.5331 -0 6.42472 32.6949 178.629 178.446 -177.319 163.241 -163.821 108.979 75.8219 54.8652 -72.5625 -0 15.0362 -35.9731 156.991 -178.52 176.786 141.724 -169.051 -180 25.7686 -0.0774568 -12.7188 179.661 180 -180 8.49158 7.09664 -11.7506 171.919 170.886 180 3.01752 0.011439 4.45259 156.442 180 -180
 0.413786 3.17118 6.63514 64.2366 64.7189 -50.0096 165.469 179.993 178.039 0 -8.02042e-05 0 171.282 179.987 176.732 0 -8.02042e-05 0 171.962 179.961 176.732 0 -8.02042e-05 0 3.77745 0.0065008 -1.96091 0 -8.02042e-05 0 172.345 -179.913 -179.352 173.286 175.833 177.717 177.937 170.511 -179.74 176.332 -153.821 172.014 37.233 13.6706 34.2586 54.8572 -39.4952 42.0563 -0 8.02594 32.3058 178.609 178.061 -177.272 161.394 -162.445 107.795 76.7534 54.4031 -73.5364 -0 15.7384 -35.2867 156.383 -178.686 176.327 142.487 -169.807 -180 25.5071 -0.0442005 -12.8698 0.878479 0 0 8.65763 6.92368 -12.044 171.542 170.816 -180 1.06074 0.00773211 4.56976 156.081 180 -180
 0.374057 3.17527 6.60974 66.7541 65.777 -52.4981 165.574 179.997 177.82 0 -0.000566979 0 171.345 179.993 176.367 0 -0.000566979 0 172.074 179.98 176.367 0 -0.000566979 0 3.58552 0.00329332 -2.18007 0 -0.000566979 0 172.017 -179.899 -179.28 172.797 175.479 178.168 177.783 170.248 -179.575 176.89 -153.595 173.233 39.1586 12.68 33.0419 52.1383 -38.5819 38.9571 -0 9.51658 32.0324 178.563 177.512 -177.167 159.649 -160.506 106.531 76.9102 53.9667 -73.5216 -0 16.2751 -34.4763 155.571 -178.653 175.491 143.528 -170.441 180 25.1173 -0.0354494 -13.0262 1.87257 0 0 8.76825 6.71972 -12.0095 170.805 170.811 180 0.850677 -0.0202852 4.687 155.708 180 -180
 0.335242 3.18089 6.59931 68.2916 66.4222 -53.6648 165.855 179.998 177.623 0 -0.001212 0 171.513 179.995 176.039 0 -0.001212 0 172.234 179.986 176.039 0 -0.001212 0 3.49798 0.00231555 -2.37663 0 -0.001212 0 172.131 -179.892 -179.215 172.887 175.285 178.149 177.806 169.88 -179.548 177.672 -153.243 174.939 41.3311 11.9732 31.9657 49.1683 -37.4234 35.2973 -0 10.9081 31.224 178.234 176.694 -176.495 158.244 -158.555 105.52 77.8181 53.5584 -74.724 -0 16.7647 -33.5092 154.779 -178.439 174.557 144.606 -171.138 -180 24.7888 -0.0469091 -13.2692 2.75315 0 0 8.55198 6.45867 -12.1828 170.045 170.766 180 0.884739 0.0236099 4.82873 155.315 180 -180
